<svg xmlns="http://www.w3.org/2000/svg" viewBox="0 0 261.25 259.88"><defs><style>.cls-1{fill:#e46e2e;}.cls-2{fill:#767474;}.cls-3{fill:#313940;}</style></defs><title>jupyter-logo</title><g id="Layer_2" data-name="Layer 2"><g id="Layer_1-2" data-name="Layer 1"><g id="Page-1"><g id="Artboard"><g id="Group-Copy-4-_-Group-_-Group-Copy" data-name="Group-Copy-4-+-Group-+-Group-Copy"><g id="Group-Copy-4"><path id="Fill-9" class="cls-1" d="M131,205.27c-42.59,0-79.68-15.31-99-37.93a105.21,105.21,0,0,0,198,0c-19.31,22.62-56.39,37.93-99,37.93"/><path id="Fill-10" class="cls-1" d="M131,58C173.62,58,210.7,73.35,230,96A105.21,105.21,0,0,0,32,96C51.35,73.35,88.44,58,131,58"/><path id="Fill-11" class="cls-2" d="M51.23,259.86a16.55,16.55,0,1,1,15.83-17.24A16.55,16.55,0,0,1,51.23,259.86Z"/><path id="Fill-12" class="cls-2" d="M38.53,44.37a10.34,10.34,0,1,1,9.89-10.78A10.34,10.34,0,0,1,38.53,44.37Z"/><path id="Fill-8" class="cls-2" d="M202.75,32.11a16.06,16.06,0,1,1,15.36-16.73A16.06,16.06,0,0,1,202.75,32.11Z"/><g id="Group-Copy"><path id="Fill-1" class="cls-3" d="M10.68,145.62c0,9.53-.74,12.65-2.73,15-1.74,1.89-4.64,2.79-7.95,3l.74,5.67c3.89,0,9.19-1.31,12.42-4.52,3.56-3.62,4.8-8.63,4.8-16.35V112.34H10.68v33.28"/><path id="Fill-2" class="cls-3" d="M65.07,141.27c0,4.11.08,7.72.33,10.85H58.95l-.41-6.49h-.17A15.1,15.1,0,0,1,45.12,153c-6.29,0-13.83-3.45-13.83-17.42V112.34h7.29v22c0,7.56,2.32,12.65,8.94,12.65a10.19,10.19,0,0,0,10.27-10.27v-24.4h7.29v28.92"/><path id="Fill-3" class="cls-3" d="M78.82,125.32c0-5.09-.17-9.2-.33-13H85l.33,6.82h.17c3-4.85,7.7-7.72,14.24-7.72,9.69,0,17,8.13,17,20.21,0,14.3-8.78,21.36-18.21,21.36-5.3,0-9.94-2.3-12.34-6.24H86v21.61h-7.2V125.32Zm7.2,10.6a16.13,16.13,0,0,0,.33,3,11.23,11.23,0,0,0,10.93,8.46c7.7,0,12.17-6.24,12.17-15.37,0-8-4.22-14.79-11.92-14.79A12.53,12.53,0,0,0,86,129.1v6.82Z"/><path id="Fill-4" class="cls-3" d="M129.65,112.34l8.78,23.5c.91,2.63,1.9,5.75,2.57,8.13h.17c.75-2.38,1.57-5.42,2.57-8.3l7.95-23.34h7.7l-10.93,28.35c-5.22,13.64-8.78,20.62-13.74,24.9a19.8,19.8,0,0,1-8.94,4.68l-1.82-6.08a19.33,19.33,0,0,0,6.38-3.53,22,22,0,0,0,6.13-8.05,5.16,5.16,0,0,0,.58-1.73,6.24,6.24,0,0,0-.5-1.89l-14.82-36.65h7.95"/><path id="Fill-5" class="cls-3" d="M178.54,100.92v11.42H189v5.51H178.54v21.45c0,4.93,1.41,7.72,5.46,7.72a16.34,16.34,0,0,0,4.22-.49l.33,5.42a18,18,0,0,1-6.46,1c-3.39,0-6.13-1.07-7.87-3-2.07-2.14-2.81-5.67-2.81-10.35V117.85h-6.21v-5.51h6.21v-9.53l7.12-1.89"/><path id="Fill-6" class="cls-3" d="M202.38,133.54c.17,9.78,6.46,13.8,13.74,13.8a26.51,26.51,0,0,0,11.09-2.05l1.24,5.18a32.66,32.66,0,0,1-13.33,2.47c-12.34,0-19.7-8.05-19.7-20s7.12-21.45,18.79-21.45c13.08,0,16.56,11.42,16.56,18.73a27,27,0,0,1-.25,3.37Zm21.36-5.18c.08-4.6-1.9-11.75-10.1-11.75-7.37,0-10.6,6.74-11.18,11.75Z"/><path id="Fill-7" class="cls-3" d="M241.46,124.75c0-4.68-.08-8.71-.33-12.41h6.38l.25,7.81h.33c1.82-5.34,6.21-8.71,11.09-8.71a7.92,7.92,0,0,1,2.07.25v6.82a11.05,11.05,0,0,0-2.48-.25c-5.13,0-8.78,3.86-9.77,9.28a20.18,20.18,0,0,0-.33,3.37v21.2h-7.2V124.75"/></g></g></g></g></g></g></g></svg>