<?xml version="1.0" encoding="UTF-8" standalone="no"?>
<svg width="50px" height="50px" viewBox="0 0 50 50" version="1.1" xmlns="http://www.w3.org/2000/svg" xmlns:xlink="http://www.w3.org/1999/xlink">
    <!-- Generator: Sketch 40.3 (33839) - http://www.bohemiancoding.com/sketch -->
    <title>Page 1</title>
    <desc>Created with Sketch.</desc>
    <defs>
        <polygon id="path-1" points="0 48.7603306 49.9070248 48.7603306 49.9070248 0.0855371901 0 0.0855371901"></polygon>
    </defs>
    <g id="Documentation-(Morgan)" stroke="none" stroke-width="1" fill="none" fill-rule="evenodd">
        <g id="Full-Docs-Page" transform="translate(-684.000000, -3206.000000)">
            <g id="Page-1" transform="translate(684.000000, 3206.000000)">
                <g id="Group-3" transform="translate(0.000000, 0.327686)">
                    <mask id="mask-2" fill="white">
                        <use xlink:href="#path-1"></use>
                    </mask>
                    <g id="Clip-2"></g>
                    <path d="M24.953595,0.0853719008 C11.173843,0.0853719008 -0.000123966942,11.2568595 -0.000123966942,25.0390909 C-0.000123966942,36.0638843 7.14987603,45.4176033 17.0647521,48.7171901 C18.3118595,48.9481818 18.7697107,48.1758678 18.7697107,47.5167769 C18.7697107,46.9221488 18.7469835,44.9560331 18.7358264,42.8709091 C11.7936777,44.3804132 10.3288017,39.9266942 10.3288017,39.9266942 C9.19367769,37.0428099 7.5581405,36.2754545 7.5581405,36.2754545 C5.29409091,34.7266942 7.72880165,34.7585124 7.72880165,34.7585124 C10.2345868,34.9345455 11.5540083,37.3304132 11.5540083,37.3304132 C13.7796281,41.144876 17.3916116,40.0419835 18.8155785,39.4043802 C19.0399587,37.7919835 19.6862397,36.6907438 20.399876,36.0676033 C14.857314,35.4370248 9.03086777,33.2969421 9.03086777,23.7353719 C9.03086777,21.011405 10.0056612,18.7849587 11.6019421,17.037438 C11.3428512,16.4089256 10.488719,13.8709091 11.8440909,10.433719 C11.8440909,10.433719 13.9395455,9.76347107 18.7077273,12.9919835 C20.6982231,12.4390909 22.8329339,12.1618182 24.953595,12.1519008 C27.0742562,12.1618182 29.2106198,12.4390909 31.2048347,12.9919835 C35.9676446,9.76347107 38.0602066,10.433719 38.0602066,10.433719 C39.4184711,13.8709091 38.5643388,16.4089256 38.3052479,17.037438 C39.9052479,18.7849587 40.8730165,21.011405 40.8730165,23.7353719 C40.8730165,33.3200826 35.0358264,35.43 29.4788017,36.0477686 C30.373843,36.8221488 31.1713636,38.3407438 31.1713636,40.668843 C31.1713636,44.007686 31.1428512,46.694876 31.1428512,47.5167769 C31.1428512,48.1812397 31.5920248,48.9593388 32.8564876,48.7142975 C42.766405,45.4109917 49.907314,36.0605785 49.907314,25.0390909 C49.907314,11.2568595 38.735,0.0853719008 24.953595,0.0853719008" id="Fill-1" fill="#181616" mask="url(#mask-2)"></path>
                </g>
                <path d="M9.45128099,36.2408264 C9.39632231,36.3652066 9.20128099,36.4023967 9.02359504,36.3168595 C8.84219008,36.2354545 8.74095041,36.0664463 8.7996281,35.9420661 C8.85334711,35.8147934 9.04838843,35.7792562 9.22938017,35.8643802 C9.4103719,35.9457851 9.51367769,36.1164463 9.45128099,36.2408264" id="Fill-4" fill="#181616"></path>
                <path d="M10.4621488,37.3683058 C10.3431405,37.4786364 10.1100826,37.4273967 9.95264463,37.2530165 C9.78900826,37.0790496 9.75884298,36.8459917 9.87950413,36.7344215 C10.0022314,36.6240909 10.2278512,36.6757438 10.3910744,36.8497107 C10.5547107,37.0257438 10.5865289,37.2563223 10.4621488,37.3683058" id="Fill-6" fill="#181616"></path>
                <path d="M11.4459917,38.8052893 C11.2930992,38.9119008 11.042686,38.812314 10.8881405,38.5904132 C10.7352479,38.3680992 10.7352479,38.1019835 10.8918595,37.9953719 C11.046405,37.8887603 11.2930992,37.9850413 11.4497107,38.204876 C11.6021901,38.4304959 11.6021901,38.6966116 11.4459917,38.8052893" id="Fill-8" fill="#181616"></path>
                <path d="M12.7938017,40.1938843 C12.6570248,40.3447107 12.3657025,40.3042149 12.1524793,40.0980165 C11.9342975,39.8971901 11.8735537,39.6116529 12.0107438,39.4608264 C12.1491736,39.3095868 12.4421488,39.3521488 12.6570248,39.556281 C12.8735537,39.7571074 12.9396694,40.0447107 12.7938017,40.1938843" id="Fill-10" fill="#181616"></path>
                <path d="M14.6533058,41.000124 C14.5929752,41.1955785 14.3123967,41.2840083 14.0297521,41.2009504 C13.7475207,41.1154132 13.5628099,40.8869008 13.6198347,40.6893802 C13.6785124,40.4922727 13.9603306,40.400124 14.2450413,40.4889669 C14.5268595,40.5740909 14.7119835,40.8013636 14.6533058,41.000124" id="Fill-12" fill="#181616"></path>
                <path d="M16.6956198,41.1494628 C16.7026446,41.3552479 16.4629752,41.5259091 16.166281,41.5296281 C15.8679339,41.5362397 15.6261983,41.3697107 15.6228926,41.1672314 C15.6228926,40.9593802 15.8576033,40.7907851 16.1555372,40.7854132 C16.4522314,40.7796281 16.6956198,40.9453306 16.6956198,41.1494628" id="Fill-14" fill="#181616"></path>
                <path d="M18.5958678,40.8261983 C18.631405,41.0266116 18.4252066,41.2328099 18.1305785,41.2877686 C17.8409091,41.3410744 17.5727273,41.2166942 17.5359504,41.0179339 C17.5,40.8121488 17.7095041,40.6059504 17.9991736,40.5526446 C18.2942149,40.501405 18.5582645,40.6220661 18.5958678,40.8261983" id="Fill-16" fill="#181616"></path>
            </g>
        </g>
    </g>
</svg>