<?xml version="1.0" encoding="utf-8"?>
<!-- Generator: Adobe Illustrator 20.1.0, SVG Export Plug-In . SVG Version: 6.00 Build 0)  -->
<svg version="1.1" xmlns="http://www.w3.org/2000/svg" xmlns:xlink="http://www.w3.org/1999/xlink" x="0px" y="0px"
	 viewBox="0 0 42.7 30" style="enable-background:new 0 0 42.7 30;" xml:space="preserve">
<style type="text/css">
	.st0{fill:#FFFFFF;}
	.st1{fill:#E7E7E6;}
	.st2{fill:#F8F8F8;}
	.st3{fill:#C9D0D0;}
	.st4{fill:#AEB6B6;}
	.st5{fill:#E0E7E7;}
	.st6{fill:#DC9A31;}
	.st7{fill:#E3C135;}
	.st8{fill:#6195CF;}
	.st9{fill:#2D4A4D;}
	.st10{fill:#E2E2E2;}
	.st11{fill:#435C7E;}
	.st12{fill:#767576;}
	.st13{fill:#DD5115;}
	.st14{fill:#BFDE5D;}
	.st15{fill:#65B19E;}
	.st16{fill:#DEDEDE;}
	.st17{fill:#484848;}
	.st18{fill:#E27C84;}
	.st19{fill:#E1BF2D;}
	.st20{fill:#82D4C1;}
	.st21{fill:#E1773A;}
	.st22{fill:#353535;}
	.st23{fill:#5A5A5A;}
	.st24{fill:#F3F3F3;}
	.st25{fill:#4B8371;}
	.st26{fill:#939393;}
	.st27{fill:#FCFCFC;}
	.st28{fill:#191919;}
	.st29{fill:#674293;}
	.st30{fill:#B29924;}
	.st31{fill:#C52335;}
	.st32{fill:#C5C5C5;}
	.st33{fill:#DD5151;}
	.st34{fill:#F6E67D;}
	.st35{fill:#222D38;}
	.st36{fill:#364B5F;}
	.st37{fill:#2A394A;}
	.st38{fill:#94C5FC;}
	.st39{clip-path:url(#SVGID_2_);}
	.st40{clip-path:url(#SVGID_8_);}
	.st41{clip-path:url(#SVGID_14_);}
	.st42{clip-path:url(#SVGID_20_);}
	.st43{clip-path:url(#SVGID_24_);}
	.st44{clip-path:url(#SVGID_28_);}
	.st45{clip-path:url(#SVGID_34_);}
	.st46{fill:#DFF2FF;}
	.st47{fill:#F2D2A0;}
	.st48{fill:#B3ABAB;}
	.st49{fill:#6A2454;}
	.st50{fill:#E07743;}
	.st51{fill:#CBC5C5;}
	.st52{fill:#6F97DF;}
	.st53{fill:#5778B7;}
	.st54{fill:#B84423;}
	.st55{fill:#E0BE3E;}
	.st56{fill:#C9A7FB;}
	.st57{clip-path:url(#SVGID_38_);}
	.st58{fill:#6C94E2;}
	.st59{fill:#EAEAEA;}
	.st60{fill:#E8A375;}
	.st61{fill:#F1D432;}
	.st62{fill:#BB2B7D;}
	.st63{fill:none;stroke:#AEB6B6;stroke-width:10;stroke-miterlimit:10;}
	.st64{fill:none;stroke:#C9D0D0;stroke-width:10;stroke-miterlimit:10;}
	.st65{fill:#1C1917;}
	.st66{fill:#EFEFEF;}
	.st67{fill:none;stroke:#C9D0D0;stroke-miterlimit:10;}
	.st68{fill:none;stroke:#C9D0D0;stroke-width:4;stroke-miterlimit:10;}
	.st69{fill:#252323;}
	.st70{fill-rule:evenodd;clip-rule:evenodd;fill:#1E1D1D;}
	.st71{fill:#1E1D1D;}
	.st72{fill:#36517E;}
	.st73{fill:none;stroke:#C9D0D0;stroke-width:8;stroke-miterlimit:10;}
	.st74{clip-path:url(#SVGID_42_);fill:#E0E7E7;}
	.st75{fill:#5D6464;stroke:#04090A;stroke-width:2;stroke-miterlimit:10;}
	.st76{fill:none;stroke:#04090A;stroke-width:10;stroke-miterlimit:10;}
	.st77{fill:#04090A;}
	.st78{fill:#383E3E;}
	.st79{clip-path:url(#SVGID_44_);fill:#5D6464;}
	.st80{opacity:0.53;clip-path:url(#SVGID_44_);fill:#969D9D;}
	.st81{fill:#969D9D;}
	.st82{fill:#6F7676;}
	.st83{fill:none;stroke:#353535;stroke-miterlimit:10;}
	.st84{fill:#272425;}
	.st85{fill:#76AAEB;}
	.st86{opacity:0.12;fill-rule:evenodd;clip-rule:evenodd;}
	.st87{fill:#2C2D2C;}
	.st88{fill:#959595;}
</style>
<g id="Layer_3">
</g>
<g id="Layer_1">
	<g id="Lozenge_2_">
		<g>
			<path class="st87" d="M42.2,6.5c0,0-0.4-2.9-1.7-4.2c-1.6-1.7-3.4-1.7-4.3-1.8C30.3,0,21.3,0,21.3,0h0c0,0-9,0-14.9,0.4
				C5.6,0.5,3.7,0.5,2.1,2.2C0.8,3.5,0.4,6.5,0.4,6.5S0,9.9,0,13.4v3.2c0,3.5,0.4,6.9,0.4,6.9s0.4,2.9,1.7,4.2
				c1.6,1.7,3.8,1.6,4.7,1.8c3.4,0.3,14.5,0.4,14.5,0.4s9,0,14.9-0.4c0.8-0.1,2.7-0.1,4.3-1.8c1.3-1.3,1.7-4.2,1.7-4.2
				s0.4-3.5,0.4-6.9v-3.2C42.7,9.9,42.2,6.5,42.2,6.5z M16.9,20.5l0-12l11.5,6L16.9,20.5z"/>
		</g>
	</g>
</g>
<g id="guides_1_">
	<g id="guides_2">
	</g>
	<g>
		<polygon class="st0" points="27,15.3 16.9,8.5 16.9,20.5 		"/>
		<polygon class="st0" points="16.9,8.5 28.4,14.6 28.4,14.6 16.9,8.5 		"/>
	</g>
</g>
</svg>
