<?xml version="1.0" encoding="utf-8"?>
<!-- Generator: Adobe Illustrator 20.1.0, SVG Export Plug-In . SVG Version: 6.00 Build 0)  -->
<svg version="1.1" id="Layer_1" xmlns="http://www.w3.org/2000/svg" xmlns:xlink="http://www.w3.org/1999/xlink" x="0px" y="0px"
	 viewBox="0 0 36.9 30" style="enable-background:new 0 0 36.9 30;" xml:space="preserve">
<style type="text/css">
	.st0{fill:#2C2D2C;}
</style>
<g id="Layer_3">
</g>
<g id="Layer_1_1_">
	<path class="st0" d="M36.9,3.6c-1.4,0.6-2.8,1-4.3,1.2c1.6-0.9,2.8-2.4,3.3-4.2c-1.5,0.9-3.1,1.5-4.8,1.8C29.7,0.9,27.7,0,25.6,0
		C21.4,0,18,3.4,18,7.6c0,0.6,0.1,1.2,0.2,1.7C11.9,9,6.3,6,2.6,1.4c-0.7,1.1-1,2.4-1,3.8c0,2.6,1.3,4.9,3.4,6.3
		c-1.2,0-2.4-0.4-3.4-0.9v0.1c0,3.7,2.6,6.7,6.1,7.4c-0.6,0.2-1.3,0.3-2,0.3c-0.5,0-1,0-1.4-0.1c1,3,3.8,5.2,7.1,5.3
		c-2.6,2-5.9,3.2-9.4,3.2c-0.6,0-1.2,0-1.8-0.1c3.2,2,7.1,3.3,11.4,3.3c13.9,0,21.5-11.5,21.5-21.5c0-0.3,0-0.7,0-1
		C34.6,6.4,35.9,5.1,36.9,3.6z"/>
</g>
<g id="guides_1_">
	<g id="guides_2">
	</g>
</g>
</svg>
